#!OML:ASF F:\VICON\USERDATA\INSTALL\Justin_Nancy\Justin_Nancy.ASF
:FULLY-SPECIFIED
:DEGREES
158
root 0.840769 17.6915 -4.567 -5.24461 1.75956 -2.57462
lowerback 7.96928 -0.293356 0.256131
upperback 1.49565 -0.267966 3.05582
thorax -2.90735 -0.125481 3.04736
lowerneck -16.1775 -3.16477 -9.73175
upperneck 21.0825 -2.73251 3.82326
head 9.53809 -1.62837 2.59049
rclavicle 6.27414e-015 -1.82882e-014
rhumerus -32.2417 -17.1317 -75.609
rradius 26.3531
rwrist 9.64594
rhand -19.272 13.031
rfingers 7.12502
rthumb 7.04256 -16.8318
lclavicle 6.27414e-015 -1.82882e-014
lhumerus -29.3513 14.417 83.4429
lradius 26.5256
lwrist -13.3747
lhand -6.65498 44.9063
lfingers 7.12502
lthumb 19.2026 73.9783
rfemur -5.65224 5.27957 28.4341
rtibia 19.8038
rfoot -3.85054 -7.75247
rtoes 3.33676
lfemur -21.9456 5.24027 -14.6857
ltibia 71.8877
lfoot 1.66768 -6.13912
ltoes -11.4602
159
root 0.837178 17.6814 -4.45595 -5.16018 1.44825 -2.68008
lowerback 8.01074 -0.172147 0.418096
upperback 1.34463 -0.0894944 3.00596
thorax -3.09631 -0.0362823 2.88708
lowerneck -15.7033 -3.13839 -9.81391
upperneck 21.1416 -2.77433 4.02242
head 9.47725 -1.63793 2.67224
rclavicle -6.64686e-015 3.18055e-015
rhumerus -31.8632 -16.6347 -75.9139
rradius 26.4215
rwrist 9.36648
rhand -19.1023 13.2774
rfingers 7.12502
rthumb 7.20641 -16.5799
lclavicle -6.64686e-015 3.18055e-015
lhumerus -29.9246 14.8524 83.1263
lradius 26.5511
lwrist -12.9747
lhand -8.31269 43.2294
lfingers 7.12502
lthumb 17.6079 72.4521
rfemur -5.53871 5.57731 28.692
rtibia 20.2922
rfoot -4.46354 -7.94933
rtoes 2.88209
lfemur -22.8368 5.15787 -14.655
ltibia 71.1776
lfoot 1.37955 -5.68557
ltoes -9.42191
160
root 0.834482 17.6611 -4.34191 -5.18195 1.07477 -2.75278
lowerback 8.18948 -0.0458743 0.523817
upperback 1.23993 0.0945602 3.00034
thorax -3.31301 0.0557803 2.80408
lowerneck -15.4235 -3.12196 -9.96005
upperneck 21.1281 -2.77615 4.15711
head 9.42489 -1.6382 2.74502
rclavicle -4.99446e-015 8.34896e-015
rhumerus -31.4228 -16.1649 -76.1394
rradius 26.3414
rwrist 9.51772
rhand -19.5729 14.1612
rfingers 7.12502
rthumb 6.75215 -15.7112
lclavicle -4.99446e-015 8.34896e-015
lhumerus -30.4967 15.0936 82.9288
lradius 26.4179
lwrist -11.605
lhand -13.0818 34.3045
lfingers 7.12502
lthumb 13.0143 63.8786
rfemur -5.21155 5.88508 28.9251
rtibia 20.6949
rfoot -5.07461 -8.16132
rtoes 2.8958
lfemur -23.5018 5.17339 -14.6688
ltibia 70.3366
lfoot 0.968514 -5.16245
ltoes -7.44383
161
root 0.844552 17.6467 -4.22369 -5.0978 0.705415 -2.58877
lowerback 8.11262 0.10277 0.558844
upperback 1.26636 0.288615 2.88392
thorax -3.25063 0.150851 2.64131
lowerneck -15.5916 -3.19276 -10.0814
upperneck 21.201 -2.85451 4.27737
head 9.49162 -1.67089 2.79699
rclavicle -2.50966e-015 3.18055e-015
rhumerus -30.7727 -15.7613 -76.4515
rradius 26.4471
rwrist 9.53206
rhand -19.9367 14.9505
rfingers 7.12502
rthumb 6.40093 -14.9327
lclavicle -2.50966e-015 3.18055e-015
lhumerus -30.7444 15.5973 82.701
lradius 26.3877
lwrist -11.2458
lhand -14.0123 32.7728
lfingers 7.12502
lthumb 12.1172 62.4019
rfemur -5.01094 5.96498 28.7996
rtibia 21.1011
rfoot -5.67883 -8.03682
rtoes 3.46418
lfemur -24.0588 5.0928 -15.0609
ltibia 69.3472
lfoot -0.163361 -4.63616
ltoes -6.18793
162
root 0.855022 17.637 -4.10547 -5.02909 0.327595 -2.72849
lowerback 7.97519 0.266212 1.00378
upperback 1.3331 0.534619 2.76292
thorax -3.10996 0.267136 2.23765
lowerneck -15.8495 -3.27668 -9.85675
upperneck 21.4313 -2.97422 4.14754
head 9.62416 -1.72438 2.69938
rclavicle 2.17421e-015 4.37326e-015
rhumerus -30.1865 -15.6124 -76.7657
rradius 26.7272
rwrist 9.46102
rhand -19.6492 14.8055
rfingers 7.12502
rthumb 6.67851 -15.0692
lclavicle 2.17421e-015 4.37326e-015
lhumerus -30.9141 16.1331 82.3171
lradius 25.9065
lwrist -10.6815
lhand -15.0749 30.334
lfingers 7.12502
lthumb 11.0925 60.0209
rfemur -4.88612 6.08007 28.9904
rtibia 21.6009
rfoot -6.36748 -7.93519
rtoes 3.87387
lfemur -24.5671 4.9724 -15.073
ltibia 68.2371
lfoot -1.24465 -4.2699
ltoes -5.74158
163
root 0.860047 17.6166 -3.99014 -4.96832 -0.0975248 -2.98819
lowerback 7.94906 0.415335 1.47572
upperback 1.3338 0.770622 2.71994
thorax -3.0954 0.379354 1.9024
lowerneck -15.8548 -3.27371 -9.70277
upperneck 21.5147 -2.99149 4.066
head 9.65167 -1.73033 2.64378
rclavicle -8.94531e-016 -5.96354e-015
rhumerus -29.6185 -15.2927 -77.0402
rradius 26.9236
rwrist 9.18716
rhand -19.2052 14.7445
rfingers 7.12502
rthumb 7.10704 -15.1162
lclavicle -8.94531e-016 -5.96354e-015
lhumerus -31.2664 16.2903 82.1884
lradius 26.3233
lwrist -10.9003
lhand -14.0386 34.2294
lfingers 7.12502
lthumb 12.0919 63.86
rfemur -4.76266 6.39104 29.3722
rtibia 22.1058
rfoot -6.99983 -8.06261
rtoes 3.67217
lfemur -25.0478 4.91035 -14.9178
ltibia 67.0031
lfoot -2.12376 -3.78387
ltoes -5.60481
